<svg fill="#fff" height="512" viewBox="0 0 512.007 512.007" width="512" xmlns="http://www.w3.org/2000/svg"><circle cx="256.004" cy="256.004" r="15"/><path d="M256.004 181.004c-41.353 0-75 33.647-75 75s33.647 75 75 75 75-33.647 75-75-33.648-75-75-75zm0 120c-24.814 0-45-20.186-45-45s20.186-45 45-45 45 20.186 45 45-20.186 45-45 45z"/><path d="M256.004 91.004C99.31 91.004 5.995 241.868 2.143 248.284a14.981 14.981 0 000 15.439c3.853 6.416 97.167 157.28 253.861 157.28s250.009-150.864 253.861-157.28a14.981 14.981 0 000-15.439c-3.853-6.416-97.167-157.28-253.861-157.28zm0 270c-57.891 0-105-47.109-105-105s47.109-105 105-105 105 47.109 105 105-47.11 105-105 105z"/></svg>